<svg width="186" height="169" viewBox="0 0 186 169" fill="none" xmlns="http://www.w3.org/2000/svg">
<g id="enter-otp/rafiki">
<g id="Shadow">
<path id="path" d="M99.6888 168.281C141.472 168.281 175.344 166.304 175.344 163.864C175.344 161.425 141.472 159.447 99.6888 159.447C57.9053 159.447 24.0332 161.425 24.0332 163.864C24.0332 166.304 57.9053 168.281 99.6888 168.281Z" fill="#E0E0E0"/>
</g>
<g id="Plant">
<path id="Vector" d="M176.974 154.106C176.974 154.106 178.828 150.063 176.709 146.075C174.59 142.088 173.978 141.151 175.328 140.332C176.678 139.512 177.298 143.523 177.298 143.523C177.966 141.712 178.034 139.734 177.493 137.881C176.557 134.998 175.968 130.3 177.247 129.796C178.527 129.293 177.493 135.649 178.609 137.827C179.175 136.303 179.541 134.712 179.698 133.093C179.85 130.776 179.612 127.077 180.623 126.128C181.633 125.18 182.285 125.836 181.29 130.947C180.692 134.003 180.362 137.105 180.303 140.218C180.303 140.218 182.499 133.511 183.978 133.316C185.457 133.121 185.453 135.29 184.189 137.175C182.925 139.06 180.486 142.435 180.088 144.171C180.088 144.171 182.503 139.122 184.673 140.659C186.842 142.197 182.784 145.252 180.974 146.356C179.163 147.461 177.907 154.359 177.907 154.359L176.974 154.106Z" fill="#377DBD"/>
<path id="Vector_2" opacity="0.2" d="M176.974 154.106C176.974 154.106 178.828 150.063 176.709 146.075C174.59 142.088 173.978 141.151 175.328 140.332C176.678 139.512 177.298 143.523 177.298 143.523C177.966 141.712 178.034 139.734 177.493 137.881C176.557 134.998 175.968 130.3 177.247 129.796C178.527 129.293 177.493 135.649 178.609 137.827C179.175 136.303 179.541 134.712 179.698 133.093C179.85 130.776 179.612 127.077 180.623 126.128C181.633 125.18 182.285 125.836 181.29 130.947C180.692 134.003 180.362 137.105 180.303 140.218C180.303 140.218 182.499 133.511 183.978 133.316C185.457 133.121 185.453 135.29 184.189 137.175C182.925 139.06 180.486 142.435 180.088 144.171C180.088 144.171 182.503 139.122 184.673 140.659C186.842 142.197 182.784 145.252 180.974 146.356C179.163 147.461 177.907 154.359 177.907 154.359L176.974 154.106Z" fill="black"/>
<path id="Vector_3" d="M178.439 155.764C178.439 155.764 176.632 151.694 178.798 147.737C180.963 143.781 181.588 142.852 180.249 142.017C178.911 141.182 178.24 145.178 178.24 145.178C177.593 143.359 177.548 141.381 178.111 139.535C179.083 136.664 179.73 131.973 178.454 131.451C177.178 130.928 178.138 137.304 176.999 139.461C176.451 137.93 176.103 136.334 175.965 134.713C175.84 132.395 176.125 128.7 175.122 127.736C174.119 126.772 173.464 127.42 174.4 132.547C174.961 135.609 175.253 138.713 175.274 141.826C175.274 141.826 173.155 135.087 171.684 134.873C170.213 134.658 170.186 136.824 171.427 138.728C172.668 140.632 175.064 144.042 175.454 145.783C175.454 145.783 173.113 140.71 170.912 142.216C168.711 143.722 172.746 146.836 174.541 147.968C176.336 149.099 177.514 156.017 177.514 156.017L178.439 155.764Z" fill="#377DBD"/>
<path id="Vector_4" d="M170.111 152.861H185.021L183.815 163.533H171.317L170.111 152.861Z" fill="#263238"/>
</g>
<g id="Device">
<path id="Vector_5" d="M114.818 161.82V163.221C114.818 163.262 114.809 163.303 114.794 163.342C114.778 163.38 114.754 163.415 114.725 163.444C114.696 163.473 114.661 163.497 114.622 163.513C114.584 163.528 114.543 163.537 114.502 163.537H74.9276C74.5901 163.537 74.2577 163.454 73.9596 163.296C73.6615 163.137 73.4067 162.908 73.2176 162.629C73.0285 162.349 72.9109 162.028 72.875 161.692C72.8391 161.356 72.8861 161.017 73.0118 160.704L85.5527 129.644L105.82 129.781L105.129 133.811L100.657 159.896C100.624 160.094 100.634 160.296 100.687 160.49C100.739 160.683 100.834 160.863 100.963 161.016C101.092 161.17 101.253 161.293 101.435 161.378C101.617 161.463 101.815 161.507 102.015 161.508H114.502C114.543 161.507 114.584 161.515 114.622 161.53C114.661 161.546 114.695 161.569 114.725 161.598C114.754 161.627 114.778 161.661 114.793 161.699C114.809 161.738 114.818 161.778 114.818 161.82Z" fill="#263238"/>
<path id="Vector_6" opacity="0.5" d="M114.818 161.82V163.221C114.818 163.262 114.809 163.303 114.794 163.342C114.778 163.38 114.754 163.415 114.725 163.444C114.696 163.473 114.661 163.497 114.622 163.513C114.584 163.528 114.543 163.537 114.502 163.537H74.9276C74.5901 163.537 74.2577 163.454 73.9596 163.296C73.6615 163.137 73.4067 162.908 73.2176 162.629C73.0285 162.349 72.9109 162.028 72.875 161.692C72.8391 161.356 72.8861 161.017 73.0118 160.704L80.7884 141.448L85.5527 129.644L105.82 129.781L105.129 133.811L103.178 145.154L100.653 159.896C100.62 160.094 100.63 160.296 100.683 160.49C100.736 160.683 100.83 160.863 100.959 161.016C101.088 161.17 101.249 161.293 101.431 161.378C101.613 161.463 101.811 161.507 102.011 161.508H114.498C114.539 161.507 114.581 161.514 114.619 161.529C114.658 161.544 114.694 161.567 114.723 161.596C114.753 161.625 114.777 161.66 114.793 161.698C114.809 161.737 114.818 161.778 114.818 161.82Z" fill="white"/>
<path id="Vector_7" opacity="0.2" d="M102.015 161.503H76.2621C76.1137 161.503 75.9677 161.466 75.8369 161.396C75.7062 161.326 75.5946 161.225 75.5121 161.101C75.4297 160.978 75.3788 160.836 75.3639 160.689C75.3491 160.541 75.3707 160.392 75.427 160.255L86.4228 133.807H105.125L100.653 159.892C100.62 160.09 100.63 160.293 100.683 160.487C100.736 160.68 100.831 160.86 100.96 161.014C101.09 161.167 101.251 161.29 101.434 161.375C101.616 161.46 101.814 161.503 102.015 161.503Z" fill="black"/>
<path id="Vector_8" opacity="0.1" d="M105.818 129.777L105.128 133.807L103.181 145.151L80.7871 141.448L85.5514 129.64L105.818 129.777Z" fill="black"/>
<path id="Vector_9" d="M145.225 71.8789H51.4017C51.0865 71.8789 50.7745 71.941 50.4833 72.0616C50.1922 72.1822 49.9276 72.3589 49.7048 72.5818C49.482 72.8046 49.3052 73.0691 49.1846 73.3603C49.064 73.6514 49.002 73.9635 49.002 74.2786V137.799C49.002 138.435 49.2548 139.046 49.7048 139.496C50.1548 139.946 50.7652 140.199 51.4017 140.199H145.225C145.862 140.199 146.472 139.946 146.923 139.496C147.374 139.046 147.627 138.436 147.628 137.799V74.2786C147.627 73.6418 147.374 73.0315 146.923 72.5815C146.472 72.1316 145.862 71.8789 145.225 71.8789Z" fill="#263238"/>
<path id="Vector_10" opacity="0.6" d="M145.225 71.8789H51.4017C51.0865 71.8789 50.7745 71.941 50.4833 72.0616C50.1922 72.1822 49.9276 72.3589 49.7048 72.5818C49.482 72.8046 49.3052 73.0691 49.1846 73.3603C49.064 73.6514 49.002 73.9635 49.002 74.2786V137.799C49.002 138.435 49.2548 139.046 49.7048 139.496C50.1548 139.946 50.7652 140.199 51.4017 140.199H145.225C145.862 140.199 146.472 139.946 146.923 139.496C147.374 139.046 147.627 138.436 147.628 137.799V74.2786C147.627 73.6418 147.374 73.0315 146.923 72.5815C146.472 72.1316 145.862 71.8789 145.225 71.8789Z" fill="white"/>
<path id="Vector_11" opacity="0.2" d="M53.3917 140.195H51.4017C50.7659 140.195 50.1561 139.943 49.7062 139.493C49.2563 139.044 49.003 138.435 49.002 137.799V74.2826C49.0014 73.9671 49.0631 73.6546 49.1835 73.363C49.3039 73.0714 49.4806 72.8064 49.7034 72.5832C49.9263 72.3599 50.191 72.1828 50.4824 72.062C50.7738 71.9411 51.0862 71.8789 51.4017 71.8789H53.3917C53.0752 71.8774 52.7616 71.9385 52.4689 72.0586C52.1761 72.1788 51.91 72.3556 51.6859 72.579C51.4617 72.8024 51.284 73.068 51.1629 73.3603C51.0418 73.6527 50.9797 73.9661 50.9803 74.2826V137.799C50.9803 138.115 51.0427 138.428 51.1641 138.719C51.2855 139.011 51.4634 139.276 51.6875 139.499C51.9116 139.721 52.1776 139.898 52.4701 140.017C52.7625 140.136 53.0758 140.197 53.3917 140.195Z" fill="black"/>
<path id="Vector_12" d="M145.467 73.9429H53.1582V135.192H145.467V73.9429Z" fill="#377DBD"/>
<path id="Vector_13" opacity="0.4" d="M98.0381 97.2574C102.464 97.2574 106.053 93.6691 106.053 89.2427C106.053 84.8163 102.464 81.228 98.0381 81.228C93.6117 81.228 90.0234 84.8163 90.0234 89.2427C90.0234 93.6691 93.6117 97.2574 98.0381 97.2574Z" fill="white"/>
<path id="Vector_14" d="M96.126 88.0251V87.2916C96.126 86.9418 96.265 86.6063 96.5123 86.359C96.7597 86.1117 97.0951 85.9727 97.4449 85.9727H98.6155C98.79 85.9706 98.9632 86.0032 99.125 86.0686C99.2868 86.1339 99.4341 86.2308 99.5582 86.3534C99.6823 86.4761 99.7809 86.6222 99.8481 86.7832C99.9154 86.9443 99.95 87.1171 99.95 87.2916V88.0408H100.805V87.2916C100.803 86.7155 100.574 86.1632 100.167 85.7559C99.7594 85.3485 99.2072 85.1192 98.6311 85.1182H97.4605C96.8844 85.1192 96.3322 85.3485 95.9248 85.7559C95.5175 86.1632 95.2881 86.7155 95.2871 87.2916V88.0408L96.126 88.0251Z" fill="white"/>
<path id="Vector_15" d="M94.1953 89.0127V92.9498C94.1953 93.0072 94.2066 93.064 94.2286 93.117C94.2505 93.1701 94.2827 93.2182 94.3233 93.2588C94.3639 93.2994 94.4121 93.3316 94.4651 93.3536C94.5181 93.3755 94.5749 93.3868 94.6323 93.3868H101.445C101.503 93.3868 101.559 93.3755 101.612 93.3536C101.665 93.3316 101.714 93.2994 101.754 93.2588C101.795 93.2182 101.827 93.1701 101.849 93.117C101.871 93.064 101.882 93.0072 101.882 92.9498V89.0127C101.882 88.8968 101.836 88.7856 101.754 88.7037C101.672 88.6217 101.561 88.5757 101.445 88.5757H94.6323C94.5749 88.5757 94.5181 88.587 94.4651 88.609C94.4121 88.6309 94.3639 88.6631 94.3233 88.7037C94.2827 88.7443 94.2505 88.7924 94.2286 88.8455C94.2066 88.8985 94.1953 88.9553 94.1953 89.0127ZM98.2846 91.2407V92.0211H97.8046V91.2407C97.7345 91.2017 97.6754 91.1453 97.6331 91.077C97.5907 91.0087 97.5665 90.9308 97.5627 90.8505C97.5627 90.7212 97.6141 90.5971 97.7056 90.5057C97.797 90.4142 97.9211 90.3628 98.0505 90.3628C98.1798 90.3628 98.3039 90.4142 98.3954 90.5057C98.4868 90.5971 98.5382 90.7212 98.5382 90.8505C98.5332 90.9319 98.5073 91.0107 98.4628 91.0791C98.4184 91.1474 98.357 91.2031 98.2846 91.2407Z" fill="white"/>
<path id="Vector_16" d="M78.485 103.895H70.9151C70.4647 103.895 70.0996 104.26 70.0996 104.71V112.28C70.0996 112.73 70.4647 113.095 70.9151 113.095H78.485C78.9354 113.095 79.3005 112.73 79.3005 112.28V104.71C79.3005 104.26 78.9354 103.895 78.485 103.895Z" fill="white"/>
<path id="Vector_17" d="M90.1568 103.883H82.587C82.1366 103.883 81.7715 104.248 81.7715 104.698V112.268C81.7715 112.719 82.1366 113.084 82.587 113.084H90.1568C90.6072 113.084 90.9724 112.719 90.9724 112.268V104.698C90.9724 104.248 90.6072 103.883 90.1568 103.883Z" fill="white"/>
<path id="Vector_18" d="M101.823 103.871H94.253C93.8026 103.871 93.4375 104.236 93.4375 104.687V112.256C93.4375 112.707 93.8026 113.072 94.253 113.072H101.823C102.273 113.072 102.638 112.707 102.638 112.256V104.687C102.638 104.236 102.273 103.871 101.823 103.871Z" fill="white"/>
<path id="Vector_19" d="M113.491 103.855H105.921C105.471 103.855 105.105 104.221 105.105 104.671V112.241C105.105 112.691 105.471 113.056 105.921 113.056H113.491C113.941 113.056 114.306 112.691 114.306 112.241V104.671C114.306 104.221 113.941 103.855 113.491 103.855Z" fill="white"/>
<path id="Vector_20" d="M125.157 103.844H117.587C117.137 103.844 116.771 104.209 116.771 104.659V112.229C116.771 112.68 117.137 113.045 117.587 113.045H125.157C125.607 113.045 125.972 112.68 125.972 112.229V104.659C125.972 104.209 125.607 103.844 125.157 103.844Z" fill="white"/>
<g id="Group" opacity="0.6">
<path id="Vector_21" d="M89.3091 101.647V101.823H87.9551V99.9067H89.2661V100.082H88.158V100.765H89.1452V100.949H88.158V101.659L89.3091 101.647Z" fill="white"/>
<path id="Vector_22" d="M91.065 100.988V101.823H90.8699V101.007C90.8815 100.947 90.8786 100.884 90.8613 100.825C90.8441 100.766 90.8131 100.711 90.7709 100.666C90.7286 100.621 90.6763 100.587 90.6182 100.566C90.5601 100.546 90.4979 100.539 90.4367 100.547C90.368 100.542 90.2991 100.552 90.2347 100.577C90.1703 100.601 90.1121 100.639 90.0642 100.689C90.0162 100.738 89.9796 100.798 89.957 100.863C89.9345 100.928 89.9264 100.997 89.9334 101.066V101.823H89.7422V100.383H89.9256V100.648C89.9842 100.558 90.0657 100.486 90.1617 100.438C90.2577 100.39 90.3648 100.368 90.4719 100.375C90.5532 100.368 90.6351 100.379 90.7115 100.408C90.7879 100.437 90.8571 100.482 90.9138 100.541C90.9706 100.599 91.0136 100.67 91.0398 100.747C91.0659 100.824 91.0745 100.907 91.065 100.988Z" fill="white"/>
<path id="Vector_23" d="M92.3407 101.729C92.2549 101.798 92.1468 101.834 92.0364 101.83C91.9802 101.835 91.9237 101.827 91.8707 101.808C91.8177 101.789 91.7695 101.758 91.7295 101.718C91.6894 101.679 91.6585 101.631 91.6387 101.578C91.6189 101.525 91.6108 101.469 91.615 101.413V100.558H91.3574V100.394H91.615V100.082H91.8101V100.394H92.2471V100.558H91.8101V101.417C91.8101 101.588 91.8959 101.678 92.0559 101.678C92.1334 101.68 92.2094 101.656 92.2705 101.608L92.3407 101.729Z" fill="white"/>
<path id="Vector_24" d="M93.9019 101.163H92.7001C92.7091 101.304 92.7738 101.436 92.8798 101.529C92.9859 101.623 93.1247 101.671 93.2659 101.662C93.3486 101.665 93.4309 101.65 93.507 101.617C93.5832 101.585 93.6513 101.536 93.7068 101.475L93.8161 101.6C93.7096 101.7 93.5773 101.768 93.4341 101.796C93.2909 101.825 93.1426 101.813 93.006 101.761C92.8695 101.709 92.7501 101.62 92.6616 101.504C92.573 101.388 92.5188 101.25 92.505 101.104C92.4996 101.009 92.5139 100.914 92.5469 100.825C92.58 100.736 92.631 100.655 92.697 100.586C92.7629 100.518 92.8423 100.464 92.9301 100.427C93.0179 100.391 93.1123 100.373 93.2074 100.375C93.3021 100.373 93.3962 100.391 93.4836 100.427C93.5711 100.464 93.65 100.518 93.7153 100.587C93.7806 100.655 93.831 100.737 93.8631 100.826C93.8952 100.915 93.9084 101.01 93.9019 101.104C93.9019 101.104 93.9019 101.139 93.9019 101.163ZM92.7001 101.018H93.7185C93.7074 100.891 93.6489 100.773 93.5546 100.686C93.4604 100.6 93.3372 100.552 93.2093 100.552C93.0815 100.552 92.9583 100.6 92.864 100.686C92.7698 100.773 92.7113 100.891 92.7001 101.018Z" fill="white"/>
<path id="Vector_25" d="M95.0207 100.375V100.558H94.9739C94.9053 100.555 94.8367 100.566 94.7732 100.592C94.7096 100.618 94.6527 100.658 94.6064 100.709C94.5601 100.76 94.5256 100.82 94.5055 100.886C94.4854 100.952 94.4801 101.021 94.49 101.089V101.822H94.291V100.383H94.4783V100.664C94.5285 100.566 94.6073 100.486 94.7043 100.434C94.8012 100.383 94.9116 100.362 95.0207 100.375Z" fill="white"/>
<path id="Vector_26" d="M97.3167 100.383L96.5987 101.994C96.4777 102.275 96.3256 102.365 96.1188 102.365C96.0549 102.367 95.9913 102.357 95.9316 102.334C95.872 102.311 95.8175 102.277 95.7715 102.232L95.8612 102.088C95.8945 102.124 95.9351 102.152 95.9802 102.171C96.0252 102.19 96.0738 102.199 96.1227 102.197C96.2514 102.197 96.3373 102.139 96.4192 101.959L96.4816 101.819L95.8534 100.383H96.0563L96.5948 101.604L97.1372 100.383H97.3167Z" fill="white"/>
<path id="Vector_27" d="M97.4125 101.105C97.4117 100.959 97.4541 100.817 97.5342 100.696C97.6144 100.575 97.7287 100.48 97.8626 100.424C97.9966 100.368 98.1442 100.353 98.2868 100.381C98.4293 100.409 98.5604 100.478 98.6634 100.581C98.7664 100.683 98.8366 100.814 98.8653 100.956C98.8939 101.099 98.8796 101.246 98.8242 101.381C98.7688 101.515 98.6748 101.63 98.554 101.71C98.4333 101.791 98.2913 101.834 98.1461 101.834C98.0491 101.838 97.9523 101.822 97.8618 101.787C97.7714 101.751 97.6891 101.698 97.6203 101.629C97.5515 101.561 97.4975 101.479 97.4617 101.389C97.426 101.298 97.4092 101.202 97.4125 101.105ZM98.6768 101.105C98.6722 101 98.6368 100.899 98.5752 100.814C98.5136 100.729 98.4284 100.664 98.3301 100.627C98.2319 100.591 98.1251 100.584 98.0228 100.607C97.9206 100.631 97.8276 100.684 97.7553 100.76C97.6831 100.836 97.6347 100.931 97.6164 101.035C97.598 101.138 97.6104 101.244 97.6521 101.34C97.6937 101.437 97.7628 101.519 97.8506 101.576C97.9385 101.633 98.0412 101.663 98.1461 101.663C98.2175 101.662 98.288 101.647 98.3534 101.619C98.4188 101.59 98.4776 101.548 98.5262 101.496C98.5749 101.444 98.6123 101.382 98.6361 101.315C98.66 101.247 98.6699 101.176 98.6651 101.105H98.6768Z" fill="white"/>
<path id="Vector_28" d="M100.555 100.383V101.823H100.372V101.557C100.318 101.646 100.242 101.719 100.15 101.767C100.059 101.816 99.9562 101.839 99.8528 101.834C99.7703 101.843 99.6871 101.832 99.6092 101.804C99.5313 101.776 99.4607 101.73 99.4027 101.671C99.3447 101.612 99.3006 101.54 99.2739 101.462C99.2471 101.384 99.2382 101.3 99.248 101.218V100.383H99.4392V101.198C99.4276 101.259 99.4305 101.321 99.4477 101.381C99.4649 101.44 99.4959 101.494 99.5382 101.539C99.5805 101.584 99.6328 101.618 99.6909 101.639C99.7489 101.66 99.8111 101.667 99.8723 101.659C99.9401 101.663 100.008 101.652 100.071 101.627C100.134 101.601 100.191 101.563 100.237 101.513C100.284 101.464 100.319 101.405 100.34 101.34C100.361 101.276 100.368 101.207 100.36 101.14V100.383H100.555Z" fill="white"/>
<path id="Vector_29" d="M101.823 100.375V100.558H101.777C101.708 100.555 101.639 100.566 101.576 100.592C101.512 100.619 101.455 100.658 101.409 100.709C101.363 100.76 101.328 100.82 101.308 100.886C101.288 100.952 101.283 101.021 101.293 101.089V101.823H101.098V100.383H101.285V100.664C101.335 100.567 101.413 100.487 101.509 100.436C101.605 100.384 101.715 100.363 101.823 100.375Z" fill="white"/>
<path id="Vector_30" d="M102.778 100.867C102.771 100.666 102.824 100.468 102.93 100.298C103.037 100.128 103.191 99.9934 103.374 99.9118C103.558 99.8302 103.761 99.8052 103.959 99.84C104.156 99.8748 104.339 99.9677 104.483 100.107C104.627 100.246 104.727 100.426 104.769 100.622C104.81 100.818 104.793 101.022 104.718 101.208C104.643 101.394 104.514 101.553 104.347 101.666C104.181 101.778 103.985 101.838 103.785 101.838C103.654 101.843 103.524 101.822 103.401 101.776C103.279 101.729 103.168 101.658 103.074 101.568C102.98 101.477 102.905 101.368 102.854 101.247C102.803 101.127 102.777 100.997 102.778 100.867ZM104.585 100.867C104.589 100.706 104.545 100.547 104.459 100.411C104.372 100.276 104.247 100.169 104.099 100.105C103.952 100.042 103.788 100.024 103.63 100.054C103.472 100.084 103.327 100.161 103.213 100.275C103.099 100.389 103.022 100.534 102.992 100.692C102.961 100.85 102.979 101.014 103.043 101.162C103.107 101.309 103.213 101.435 103.349 101.521C103.485 101.608 103.643 101.652 103.804 101.647C104.011 101.647 104.21 101.565 104.356 101.418C104.502 101.272 104.585 101.074 104.585 100.867Z" fill="white"/>
<path id="Vector_31" d="M105.585 100.082H104.914V99.9067H106.475V100.082H105.8V101.823H105.597L105.585 100.082Z" fill="white"/>
<path id="Vector_32" d="M108.28 100.558C108.28 100.949 107.983 101.21 107.499 101.21H106.988V101.815H106.777V99.8989H107.491C107.983 99.9067 108.28 100.168 108.28 100.558ZM108.077 100.558C108.077 100.25 107.874 100.075 107.491 100.075H106.984V101.031H107.491C107.874 101.038 108.077 100.867 108.077 100.558Z" fill="white"/>
</g>
<g id="Group_2" opacity="0.6">
<path id="Vector_33" d="M90.4492 118.075L90.5273 117.923C90.7024 118.075 90.9275 118.157 91.1594 118.153C91.5145 118.153 91.6705 118.005 91.6705 117.813C91.6705 117.291 90.4999 117.611 90.4999 116.904C90.4999 116.623 90.7185 116.381 91.2023 116.381C91.4121 116.379 91.6182 116.437 91.7954 116.549L91.7291 116.709C91.5716 116.609 91.3891 116.555 91.2023 116.553C90.855 116.553 90.6989 116.709 90.6989 116.9C90.6989 117.423 91.8695 117.107 91.8695 117.802C91.8695 118.087 91.6471 118.325 91.1594 118.325C90.8996 118.334 90.6458 118.245 90.4492 118.075Z" fill="white"/>
<path id="Vector_34" d="M93.513 117.649H92.3112C92.3203 117.79 92.3849 117.922 92.4909 118.016C92.597 118.109 92.7358 118.157 92.877 118.149C92.9597 118.151 93.042 118.136 93.1181 118.104C93.1943 118.071 93.2624 118.023 93.3179 117.961L93.4272 118.086C93.3585 118.165 93.273 118.227 93.1772 118.268C93.0813 118.309 92.9774 118.329 92.8731 118.324C92.7741 118.33 92.675 118.316 92.582 118.281C92.489 118.247 92.4042 118.193 92.333 118.124C92.2617 118.055 92.2057 117.972 92.1684 117.88C92.131 117.788 92.1132 117.69 92.1161 117.591C92.1113 117.496 92.126 117.401 92.1592 117.312C92.1925 117.223 92.2436 117.142 92.3094 117.074C92.3752 117.006 92.4543 116.951 92.5419 116.915C92.6295 116.878 92.7236 116.86 92.8185 116.861C92.9135 116.859 93.0081 116.876 93.096 116.912C93.1839 116.949 93.2632 117.003 93.329 117.072C93.3947 117.14 93.4454 117.222 93.4778 117.311C93.5102 117.401 93.5235 117.496 93.5169 117.591C93.5169 117.591 93.513 117.63 93.513 117.649ZM92.3112 117.505H93.3296C93.3185 117.378 93.26 117.259 93.1657 117.173C93.0715 117.086 92.9483 117.038 92.8204 117.038C92.6926 117.038 92.5694 117.086 92.4751 117.173C92.3809 117.259 92.3224 117.378 92.3112 117.505Z" fill="white"/>
<path id="Vector_35" d="M95.2407 117.474V118.309H95.0495V117.493C95.0604 117.433 95.057 117.371 95.0395 117.312C95.0219 117.253 94.9908 117.2 94.9486 117.155C94.9065 117.111 94.8544 117.077 94.7967 117.056C94.739 117.036 94.6772 117.029 94.6164 117.037C94.5477 117.032 94.4787 117.042 94.4144 117.066C94.35 117.091 94.2918 117.129 94.2438 117.179C94.1959 117.228 94.1593 117.288 94.1367 117.353C94.1141 117.418 94.106 117.487 94.113 117.556V118.309H93.9023V116.873H94.0896V117.138C94.1478 117.047 94.2291 116.974 94.3251 116.925C94.4212 116.877 94.5284 116.854 94.6359 116.861C94.7182 116.852 94.8014 116.862 94.8793 116.89C94.9572 116.918 95.0279 116.963 95.086 117.022C95.1441 117.08 95.1882 117.152 95.215 117.23C95.2418 117.308 95.2506 117.392 95.2407 117.474Z" fill="white"/>
<path id="Vector_36" d="M97.0855 116.28V118.309H96.8982V118.024C96.8412 118.119 96.7596 118.197 96.6622 118.25C96.5648 118.303 96.4549 118.328 96.3442 118.324C96.1594 118.311 95.9865 118.228 95.8603 118.092C95.7342 117.957 95.6641 117.778 95.6641 117.593C95.6641 117.407 95.7342 117.229 95.8603 117.093C95.9865 116.958 96.1594 116.875 96.3442 116.861C96.4521 116.857 96.5591 116.882 96.6549 116.932C96.7506 116.981 96.8318 117.055 96.8904 117.146V116.28H97.0855ZM96.8943 117.591C96.8898 117.486 96.8546 117.385 96.7931 117.301C96.7316 117.216 96.6466 117.151 96.5486 117.114C96.4506 117.077 96.344 117.07 96.2419 117.093C96.1398 117.116 96.0467 117.169 95.9743 117.244C95.9018 117.32 95.8532 117.415 95.8344 117.518C95.8156 117.621 95.8275 117.728 95.8685 117.824C95.9096 117.92 95.978 118.002 96.0654 118.06C96.1527 118.118 96.2551 118.149 96.3598 118.149C96.4323 118.15 96.5043 118.136 96.5713 118.108C96.6382 118.08 96.6987 118.039 96.7489 117.987C96.7991 117.934 96.8379 117.872 96.8629 117.804C96.888 117.736 96.8987 117.663 96.8943 117.591Z" fill="white"/>
<path id="Vector_37" d="M99.4284 117.419V118.309H99.2411V118.086C99.1869 118.166 99.1125 118.23 99.0254 118.272C98.9384 118.314 98.8418 118.332 98.7455 118.324C98.4217 118.324 98.2227 118.153 98.2227 117.903C98.2227 117.653 98.3631 117.513 98.7767 117.513H99.2333V117.427C99.2388 117.374 99.2325 117.321 99.2148 117.271C99.1972 117.221 99.1686 117.176 99.1312 117.139C99.0938 117.101 99.0485 117.073 98.9987 117.055C98.9488 117.037 98.8957 117.031 98.8431 117.037C98.6676 117.034 98.4971 117.095 98.3631 117.208L98.2773 117.064C98.442 116.932 98.6479 116.863 98.8587 116.869C98.934 116.86 99.0103 116.868 99.0821 116.892C99.154 116.916 99.2195 116.956 99.2741 117.009C99.3286 117.061 99.3707 117.126 99.3974 117.196C99.4241 117.267 99.4347 117.343 99.4284 117.419ZM99.2333 117.876V117.641H98.7806C98.5036 117.641 98.4138 117.751 98.4138 117.899C98.4138 118.047 98.5465 118.168 98.7767 118.168C98.8741 118.175 98.971 118.15 99.0532 118.097C99.1353 118.044 99.1984 117.967 99.2333 117.876Z" fill="white"/>
<path id="Vector_38" d="M101.289 116.873V118.118C101.304 118.216 101.296 118.316 101.266 118.41C101.235 118.504 101.182 118.589 101.112 118.659C101.042 118.729 100.957 118.782 100.863 118.812C100.769 118.843 100.669 118.851 100.571 118.836C100.328 118.845 100.09 118.768 99.8998 118.617L99.9973 118.469C100.157 118.598 100.357 118.667 100.563 118.664C100.93 118.664 101.094 118.5 101.094 118.145V117.962C101.032 118.052 100.948 118.124 100.851 118.173C100.753 118.221 100.645 118.244 100.536 118.239C100.44 118.246 100.344 118.233 100.253 118.201C100.162 118.17 100.079 118.12 100.009 118.054C99.9381 117.989 99.8819 117.91 99.8434 117.822C99.805 117.733 99.7852 117.638 99.7852 117.542C99.7852 117.446 99.805 117.351 99.8434 117.263C99.8819 117.175 99.9381 117.096 100.009 117.03C100.079 116.965 100.162 116.915 100.253 116.883C100.344 116.851 100.44 116.839 100.536 116.846C100.647 116.84 100.757 116.864 100.856 116.914C100.955 116.964 101.04 117.038 101.102 117.131V116.857L101.289 116.873ZM101.102 117.556C101.105 117.447 101.077 117.34 101.019 117.247C100.962 117.155 100.878 117.082 100.778 117.037C100.679 116.993 100.568 116.979 100.461 116.998C100.354 117.017 100.255 117.068 100.176 117.143C100.098 117.219 100.044 117.316 100.021 117.422C99.9987 117.529 100.008 117.64 100.049 117.741C100.09 117.842 100.16 117.928 100.25 117.989C100.34 118.05 100.446 118.083 100.555 118.083C100.627 118.087 100.698 118.076 100.765 118.052C100.832 118.027 100.893 117.989 100.944 117.939C100.996 117.89 101.036 117.83 101.063 117.764C101.09 117.698 101.103 117.627 101.102 117.556Z" fill="white"/>
<path id="Vector_39" d="M102.917 117.419V118.309H102.733V118.086C102.679 118.166 102.604 118.23 102.517 118.272C102.43 118.313 102.334 118.332 102.238 118.324C101.91 118.324 101.711 118.153 101.711 117.903C101.711 117.653 101.855 117.513 102.269 117.513H102.722V117.427C102.722 117.181 102.585 117.037 102.331 117.037C102.157 117.035 101.988 117.096 101.855 117.208L101.766 117.064C101.932 116.932 102.139 116.863 102.351 116.869C102.426 116.861 102.502 116.869 102.573 116.893C102.644 116.918 102.71 116.958 102.764 117.01C102.818 117.063 102.859 117.127 102.886 117.198C102.912 117.268 102.923 117.344 102.917 117.419ZM102.722 117.876V117.641H102.273C101.992 117.641 101.902 117.751 101.902 117.899C101.902 118.047 102.039 118.168 102.269 118.168C102.366 118.175 102.462 118.15 102.544 118.097C102.626 118.045 102.688 117.967 102.722 117.876Z" fill="white"/>
<path id="Vector_40" d="M103.4 116.416C103.406 116.382 103.423 116.352 103.449 116.33C103.476 116.308 103.509 116.295 103.543 116.295C103.577 116.295 103.61 116.308 103.636 116.33C103.662 116.352 103.68 116.382 103.685 116.416C103.68 116.45 103.662 116.481 103.636 116.503C103.61 116.525 103.577 116.537 103.543 116.537C103.509 116.537 103.476 116.525 103.449 116.503C103.423 116.481 103.406 116.45 103.4 116.416ZM103.443 116.873H103.638V118.309H103.443V116.873Z" fill="white"/>
<path id="Vector_41" d="M105.499 117.474V118.309H105.307V117.493C105.318 117.433 105.315 117.371 105.297 117.312C105.28 117.253 105.249 117.2 105.206 117.155C105.164 117.111 105.112 117.077 105.055 117.056C104.997 117.036 104.935 117.029 104.874 117.037C104.806 117.032 104.737 117.042 104.672 117.066C104.608 117.091 104.55 117.129 104.502 117.179C104.454 117.228 104.417 117.288 104.395 117.353C104.372 117.418 104.364 117.487 104.371 117.556V118.309H104.18V116.873H104.363V117.138C104.421 117.047 104.503 116.974 104.599 116.925C104.695 116.877 104.802 116.854 104.909 116.861C104.99 116.855 105.072 116.866 105.148 116.895C105.224 116.924 105.292 116.97 105.349 117.028C105.405 117.087 105.448 117.157 105.474 117.234C105.499 117.311 105.508 117.393 105.499 117.474Z" fill="white"/>
</g>
<path id="Vector_42" opacity="0.4" d="M108.908 128.064H87.1625C86.3032 128.063 85.4794 127.721 84.8722 127.113C84.2649 126.505 83.9238 125.68 83.9238 124.821C83.9238 123.962 84.2649 123.138 84.8722 122.53C85.4794 121.922 86.3032 121.58 87.1625 121.579H108.908C109.768 121.579 110.593 121.92 111.201 122.528C111.809 123.136 112.151 123.961 112.151 124.821C112.151 125.681 111.809 126.506 111.201 127.114C110.593 127.722 109.768 128.064 108.908 128.064Z" fill="white"/>
<path id="Vector_43" d="M89.5548 124.657C89.5529 124.505 89.5823 124.355 89.6412 124.215C89.7 124.075 89.787 123.948 89.8968 123.843C90.0066 123.738 90.1368 123.657 90.2793 123.604C90.4219 123.552 90.5737 123.529 90.7254 123.537C90.8804 123.532 91.0348 123.56 91.1782 123.619C91.3216 123.678 91.4506 123.767 91.5565 123.881L91.3536 124.076C91.2751 123.991 91.1795 123.925 91.0732 123.88C90.9669 123.836 90.8523 123.815 90.7371 123.818C90.5985 123.82 90.4625 123.855 90.341 123.922C90.2196 123.989 90.1166 124.085 90.0412 124.201C89.9658 124.317 89.9204 124.45 89.909 124.588C89.8976 124.726 89.9206 124.865 89.9759 124.992C90.0312 125.119 90.1171 125.23 90.2259 125.316C90.3347 125.402 90.4631 125.459 90.5995 125.483C90.736 125.507 90.8763 125.497 91.0078 125.454C91.1394 125.411 91.2582 125.335 91.3536 125.235L91.5565 125.43C91.45 125.543 91.3203 125.633 91.1763 125.692C91.0322 125.751 90.8771 125.779 90.7215 125.773C90.5703 125.782 90.419 125.759 90.2769 125.707C90.1348 125.654 90.0051 125.573 89.8957 125.469C89.7862 125.364 89.6995 125.238 89.6409 125.098C89.5822 124.959 89.5529 124.809 89.5548 124.657Z" fill="white"/>
<path id="Vector_44" d="M91.7669 124.657C91.756 124.424 91.8153 124.192 91.9371 123.993C92.0589 123.793 92.2377 123.635 92.4504 123.538C92.6631 123.441 92.9 123.41 93.1305 123.448C93.3611 123.487 93.5747 123.594 93.744 123.755C93.9132 123.917 94.0302 124.125 94.08 124.354C94.1298 124.582 94.11 124.82 94.0232 125.037C93.9365 125.254 93.7867 125.44 93.5932 125.572C93.3997 125.703 93.1713 125.773 92.9375 125.773C92.7863 125.781 92.635 125.758 92.493 125.706C92.351 125.653 92.2212 125.572 92.1116 125.468C92.002 125.363 91.9149 125.237 91.8556 125.098C91.7964 124.959 91.7662 124.809 91.7669 124.657ZM93.7764 124.657C93.7787 124.488 93.7307 124.323 93.6385 124.181C93.5463 124.04 93.414 123.929 93.2586 123.863C93.1032 123.797 92.9316 123.778 92.7657 123.81C92.5998 123.842 92.4472 123.923 92.3272 124.041C92.2072 124.16 92.1253 124.312 92.092 124.478C92.0586 124.643 92.0753 124.815 92.14 124.971C92.2046 125.127 92.3142 125.26 92.4549 125.354C92.5955 125.447 92.7608 125.497 92.9297 125.496C93.0412 125.5 93.1524 125.481 93.2563 125.44C93.3602 125.399 93.4547 125.338 93.534 125.259C93.6133 125.181 93.6757 125.087 93.7174 124.983C93.759 124.88 93.7791 124.769 93.7764 124.657Z" fill="white"/>
<path id="Vector_45" d="M96.4452 123.58V125.765H96.1877L94.8766 124.134V125.765H94.5645V123.58H94.822L96.1331 125.207V123.58H96.4452Z" fill="white"/>
<path id="Vector_46" d="M97.5343 123.834H96.7852V123.58H98.584V123.849H97.8426V125.765H97.5343V123.834Z" fill="white"/>
<path id="Vector_47" d="M98.9316 123.58H99.2438V125.765H98.9316V123.58Z" fill="white"/>
<path id="Vector_48" d="M101.781 123.58V125.765H101.524L100.213 124.134V125.765H99.9004V123.58H100.146L101.457 125.207V123.58H101.781Z" fill="white"/>
<path id="Vector_49" d="M102.416 124.805V123.58H102.728V124.809C102.728 125.293 102.951 125.512 103.345 125.512C103.739 125.512 103.961 125.293 103.961 124.809V123.58H104.266V124.821C104.266 125.066 104.168 125.301 103.995 125.475C103.821 125.648 103.586 125.746 103.341 125.746C103.096 125.746 102.86 125.648 102.687 125.475C102.513 125.301 102.416 125.066 102.416 124.821V124.805Z" fill="white"/>
<path id="Vector_50" d="M106.49 125.476V125.75H104.906V123.58H106.467V123.849H105.218V124.52H106.311V124.786H105.218V125.492L106.49 125.476Z" fill="white"/>
<path id="Vector_51" opacity="0.1" d="M135.328 73.5604C122.564 86.3472 89.7836 114.808 52.6406 112.701V73.5604H135.328Z" fill="white"/>
<path id="Vector_52" opacity="0.1" d="M146.213 99.0323V136.784H90.6406C92.7711 129.16 97.0321 118.718 105.296 111.257C120.163 97.8344 137.418 97.8734 146.213 99.0323Z" fill="white"/>
</g>
<g id="speech-bubble">
<g id="speech-bubble_2">
<g id="speech-bubble_3">
<path id="Vector_53" d="M42.0483 50.7776C42.4539 48.8846 34.7279 53.3468 34.3223 55.2398L36.8028 61.94C36.8928 62.1339 37.039 62.2964 37.2224 62.4063C37.768 62.742 39.7822 63.8797 39.9547 63.9869C40.0945 64.0724 40.2518 64.125 40.4148 64.1409C40.5779 64.1567 40.7424 64.1353 40.8959 64.0783C41.0495 64.0213 41.1881 63.9301 41.3013 63.8117C41.4145 63.6933 41.4993 63.5507 41.5494 63.3947L44.7759 52.3303C44.9811 51.4211 42.0483 50.7776 42.0483 50.7776Z" fill="#377DBD"/>
<path id="Vector_54" opacity="0.25" d="M42.0483 50.7776C42.4539 48.8846 34.7279 53.3468 34.3223 55.2398L36.8028 61.94C36.8928 62.1339 37.039 62.2964 37.2224 62.4063C37.768 62.742 39.7822 63.8797 39.9547 63.9869C40.0945 64.0724 40.2518 64.125 40.4148 64.1409C40.5779 64.1567 40.7424 64.1353 40.8959 64.0783C41.0495 64.0213 41.1881 63.9301 41.3013 63.8117C41.4145 63.6933 41.4993 63.5507 41.5494 63.3947L44.7759 52.3303C44.9811 51.4211 42.0483 50.7776 42.0483 50.7776Z" fill="black"/>
<path id="Vector_55" d="M66.2151 0.560927L1.74484 37.7548C1.44244 37.951 1.19064 38.2159 1.00996 38.5278C0.829279 38.8397 0.724819 39.1899 0.705078 39.5499V74.9859C0.724819 75.3459 0.829279 75.6961 1.00996 76.008C1.19064 76.32 1.44244 76.5848 1.74484 76.7811L2.39295 77.1494C2.71436 77.3128 3.06983 77.398 3.43039 77.398C3.79095 77.398 4.14641 77.3128 4.46782 77.1494L68.9428 39.9136C69.2447 39.7161 69.4957 39.4502 69.6756 39.1375C69.8554 38.8248 69.959 38.4741 69.9779 38.1138V2.71973C69.959 2.36011 69.8554 2.01004 69.6755 1.69807C69.4957 1.3861 69.2446 1.12108 68.9428 0.924612L68.2947 0.556263C67.972 0.393913 67.6156 0.309743 67.2543 0.310553C66.8931 0.311363 66.5371 0.397132 66.2151 0.560927Z" fill="#377DBD"/>
<path id="Vector_56" opacity="0.25" d="M66.2151 0.560927L1.74484 37.7548C1.44244 37.951 1.19064 38.2159 1.00996 38.5278C0.829279 38.8397 0.724819 39.1899 0.705078 39.5499V74.9859C0.724819 75.3459 0.829279 75.6961 1.00996 76.008C1.19064 76.32 1.44244 76.5848 1.74484 76.7811L2.39295 77.1494C2.71437 77.3128 3.06983 77.3979 3.43039 77.3979C3.79095 77.3979 4.14641 77.3128 4.46782 77.1494L68.9428 39.9136C69.2447 39.7161 69.4957 39.4502 69.6756 39.1375C69.8554 38.8248 69.959 38.4741 69.9779 38.1138V2.71973C69.959 2.36011 69.8554 2.01004 69.6755 1.69807C69.4957 1.3861 69.2446 1.12108 68.9428 0.924612L68.2947 0.556263C67.972 0.393913 67.6156 0.309743 67.2543 0.310553C66.8931 0.311363 66.5371 0.397132 66.2151 0.560927Z" fill="black"/>
<path id="Vector_57" d="M69.9826 2.71973V3.12538C69.9815 2.95734 69.9363 2.79252 69.8515 2.64742C69.7668 2.50231 69.6454 2.38198 69.4996 2.29845C69.3537 2.21492 69.1886 2.17111 69.0205 2.1714C68.8524 2.17169 68.6874 2.21607 68.5419 2.3001L4.85959 39.093C4.42365 39.3385 4.06264 39.6979 3.81516 40.1327V40.1654L1.01758 38.5474C1.19426 38.2249 1.45123 37.9535 1.7636 37.7594L66.2339 0.560934C66.5562 0.400744 66.9113 0.317383 67.2713 0.317383C67.6313 0.317383 67.9864 0.400744 68.3088 0.560934L68.9569 0.929283C69.2558 1.12687 69.5043 1.39174 69.6824 1.70266C69.8606 2.01359 69.9634 2.36192 69.9826 2.71973Z" fill="#377DBD"/>
<path id="Vector_58" opacity="0.45" d="M69.9826 2.71973V3.12538C69.9815 2.95733 69.9363 2.79252 69.8515 2.64742C69.7668 2.50231 69.6454 2.38198 69.4996 2.29845C69.3538 2.21492 69.1886 2.17111 69.0205 2.1714C68.8524 2.17169 68.6874 2.21607 68.5419 2.3001L4.85959 39.093C4.42365 39.3385 4.06264 39.6979 3.81516 40.1327V40.1654L1.01758 38.5474C1.19426 38.2249 1.45123 37.9535 1.7636 37.7594L66.2339 0.560934C66.5563 0.400744 66.9113 0.317383 67.2713 0.317383C67.6313 0.317383 67.9864 0.400744 68.3088 0.560934L68.9569 0.929283C69.2558 1.12687 69.5043 1.39174 69.6824 1.70266C69.8606 2.01359 69.9634 2.36192 69.9826 2.71973Z" fill="white"/>
<path id="Vector_59" d="M69.0229 2.53778C68.9213 2.53811 68.8215 2.56546 68.7339 2.61705L5.0469 39.4146C4.67031 39.632 4.35749 39.9446 4.13981 40.321C3.92213 40.6975 3.80723 41.1245 3.80664 41.5594V76.1002C3.80664 76.296 3.84861 76.753 4.22628 76.753C4.39222 76.7457 4.55319 76.6941 4.69255 76.6038L37.7367 57.5243L39.8022 63.2546C39.8903 63.4541 40.037 63.6222 40.2227 63.7365C40.4084 63.8509 40.6245 63.9062 40.8423 63.895C41.0601 63.8839 41.2694 63.8069 41.4426 63.6743C41.6157 63.5416 41.7444 63.3595 41.8118 63.1521L44.6094 53.5564L68.3888 39.8295C69.2514 39.3353 69.6338 38.8317 69.6338 38.2023V3.12528C69.6345 3.04593 69.619 2.96728 69.5882 2.89413C69.5575 2.82098 69.5122 2.75488 69.455 2.69988C69.3978 2.64487 69.33 2.60213 69.2557 2.57426C69.1814 2.54638 69.1022 2.53397 69.0229 2.53778Z" fill="white"/>
<path id="Vector_60" d="M4.22549 77.1402C3.75922 77.1402 3.4375 76.7392 3.4375 76.1191V41.5596C3.43879 41.0602 3.57071 40.5697 3.82019 40.137C4.06966 39.7043 4.428 39.3444 4.85961 39.0931L68.5466 2.30487C68.6878 2.22106 68.8486 2.17602 69.0128 2.17432C69.2583 2.18023 69.4921 2.28038 69.6657 2.454C69.8393 2.62762 69.9394 2.86138 69.9454 3.10684V38.1839C69.9454 39.191 69.1247 39.7785 68.5139 40.1328L44.9163 53.827L42.1607 63.2782C42.074 63.561 41.9026 63.8104 41.6697 63.9927C41.4368 64.175 41.1536 64.2815 40.8583 64.2978C40.5629 64.314 40.2697 64.2393 40.0182 64.0836C39.7667 63.928 39.5689 63.6989 39.4517 63.4274L37.526 58.0933L4.86427 76.9257C4.67437 77.0531 4.45377 77.1271 4.22549 77.1402ZM69.0361 2.93432C68.9986 2.93471 68.9618 2.94432 68.9289 2.9623L5.24661 39.7505C4.92561 39.9358 4.6589 40.2022 4.47315 40.5229C4.28741 40.8437 4.18915 41.2076 4.18818 41.5783V76.1191C4.17961 76.2193 4.20068 76.3198 4.24879 76.4082C4.3405 76.3873 4.42854 76.3527 4.50991 76.3056L37.9363 57.0023L40.1418 63.1523C40.2 63.2792 40.2953 63.3855 40.4152 63.4571C40.5351 63.5287 40.6739 63.5622 40.8132 63.5533C40.9569 63.5467 41.0952 63.4963 41.2094 63.4087C41.3237 63.3212 41.4083 63.2008 41.452 63.0637L44.2869 53.3328L44.4128 53.2582L68.1922 39.5314C69.1247 38.9952 69.2553 38.5709 69.2553 38.2258V3.12549C69.2548 3.09608 69.2482 3.06709 69.236 3.04033C69.2238 3.01357 69.2062 2.9896 69.1843 2.96992C69.1625 2.95024 69.1368 2.93527 69.1089 2.92594C69.081 2.91661 69.0515 2.91311 69.0222 2.91567L69.0361 2.93432Z" fill="#377DBD"/>
</g>
<path id="Vector_61" d="M11.0139 50.5632C11.0548 49.4389 11.211 48.3218 11.4801 47.2294C11.7453 46.1346 12.1315 45.0727 12.6318 44.0635C13.1221 43.0818 13.7312 42.1641 14.4456 41.3312C15.1457 40.5157 15.9779 39.8238 16.9074 39.2843C17.6439 38.812 18.4909 38.5404 19.3646 38.4963C20.0281 38.4769 20.6755 38.7027 21.1831 39.1304C21.7284 39.6235 22.127 40.2576 22.3347 40.9628C22.6243 41.868 22.7813 42.8103 22.801 43.7604C22.829 44.581 22.843 45.4436 22.843 46.3575C22.843 47.2713 22.843 48.1246 22.801 48.9359C22.7594 50.0601 22.6032 51.1772 22.3347 52.2697C22.0709 53.3679 21.6846 54.433 21.1831 55.445C20.6986 56.4339 20.0873 57.3556 19.3646 58.1866C18.6639 58.9932 17.8334 59.6771 16.9074 60.2102C16.1712 60.6898 15.3227 60.9694 14.4456 61.0215C13.7824 61.0424 13.1355 60.8145 12.6318 60.3827C12.087 59.876 11.6891 59.2317 11.4801 58.5176C11.1914 57.6123 11.0344 56.6701 11.0139 55.72C10.9906 54.9414 10.9766 54.0975 10.9766 53.1882C10.9766 52.279 10.9906 51.4024 11.0139 50.5632ZM19.2994 50.8056C19.2994 50.4513 19.3273 50.0549 19.3413 49.6213C19.3553 49.1877 19.3413 48.7494 19.3413 48.3018C19.3413 47.8542 19.3413 47.4299 19.3413 47.0196C19.3413 46.6093 19.3134 46.2456 19.2994 45.9239C19.2853 45.5101 19.2195 45.0997 19.1035 44.7022C19.0181 44.3999 18.8578 44.1241 18.6373 43.9003C18.4409 43.7136 18.1809 43.6086 17.9099 43.6065C17.546 43.6232 17.1933 43.7375 16.8888 43.9376C16.5037 44.1599 16.1598 44.4469 15.8723 44.7862C15.5811 45.1302 15.3366 45.5112 15.145 45.9192C14.9416 46.3406 14.7853 46.7831 14.6787 47.2387C14.5712 47.7171 14.5041 48.2038 14.4782 48.6935C14.4549 49.0338 14.4362 49.4162 14.4316 49.8358C14.4269 50.2554 14.4316 50.6891 14.4316 51.1367C14.4316 51.5843 14.4316 52.0179 14.4316 52.4376C14.4316 52.8572 14.4316 53.2395 14.4782 53.5752C14.4591 54.3073 14.6893 55.0241 15.131 55.6082C15.5133 56.0278 16.0946 56.0122 16.8748 55.5615C17.6532 55.1145 18.264 54.4251 18.614 53.5985C19.009 52.7132 19.2411 51.764 19.2994 50.7963V50.8056Z" fill="#455A64"/>
<path id="Vector_62" d="M34.6312 41.0184C34.6312 41.2982 34.6312 41.6712 34.6312 42.1235C34.6312 42.5757 34.6312 42.9581 34.6312 43.2565C34.6016 44.2203 34.4624 45.1777 34.2162 46.11C33.9697 47.0573 33.6211 47.975 33.1764 48.847C32.7467 49.6977 32.2109 50.4904 31.5818 51.2063C30.9854 51.8908 30.2814 52.4735 29.4976 52.9315C28.8699 53.3309 28.1513 53.5651 27.4087 53.6122C26.8318 53.6403 26.2646 53.4562 25.8141 53.0947C25.3367 52.6863 24.979 52.1562 24.779 51.5606C24.5103 50.7962 24.3685 49.9929 24.3594 49.1827C24.3594 48.8983 24.3594 48.5299 24.3594 48.073C24.3594 47.6161 24.3594 47.2431 24.3594 46.9446C24.3783 45.9842 24.5114 45.0295 24.7557 44.1004C25.0042 43.151 25.356 42.2316 25.8048 41.3588C26.2437 40.5056 26.7821 39.7074 27.4087 38.9809C28.0028 38.287 28.7088 37.6976 29.4976 37.237C30.1236 36.8402 30.8416 36.6121 31.5818 36.5749C32.1611 36.5611 32.7275 36.7472 33.1857 37.1018C33.6684 37.5083 34.0285 38.041 34.2255 38.6405C34.4846 39.407 34.6214 40.2094 34.6312 41.0184ZM27.7584 47.0799C27.7957 47.7979 27.9683 48.2735 28.276 48.5113C28.5837 48.7491 28.994 48.7211 29.4976 48.432C30.0246 48.1178 30.4478 47.6557 30.7146 47.1032C31.0323 46.4727 31.2089 45.7806 31.2321 45.0749C31.2554 44.7718 31.2694 44.4361 31.2694 44.0678C31.2694 43.6994 31.2694 43.3777 31.2321 43.098C31.1948 42.3861 31.0223 41.9105 30.7146 41.6712C30.4068 41.4334 30.0012 41.4567 29.4976 41.7505C28.9716 42.0653 28.5475 42.525 28.276 43.0747C27.9589 43.707 27.7823 44.4005 27.7584 45.1076C27.7351 45.4106 27.7211 45.7463 27.7211 46.1147C27.7211 46.483 27.7351 46.8001 27.7584 47.0752V47.0799Z" fill="#455A64"/>
<path id="Vector_63" d="M42.3338 45.5226C42.0371 45.7058 41.7104 45.8352 41.3687 45.9049C41.132 45.9552 40.8873 45.9552 40.6506 45.9049C40.4628 45.8524 40.2891 45.7584 40.1424 45.6298C40.0143 45.5214 39.9 45.3977 39.802 45.2615V51.4535C39.7988 51.6747 39.7479 51.8925 39.6528 52.0923C39.5815 52.2721 39.456 52.4252 39.2938 52.5305L36.9158 53.9293C36.8626 53.9686 36.7971 53.9874 36.7311 53.9823C36.6652 53.9771 36.6033 53.9484 36.5568 53.9014C36.5006 53.8384 36.4579 53.7645 36.4314 53.6842C36.4049 53.604 36.3952 53.5192 36.403 53.4351V34.3229C36.4057 34.1012 36.4583 33.8829 36.5568 33.6842C36.6282 33.5044 36.7536 33.3512 36.9158 33.2459L39.2006 31.9264C39.2538 31.8871 39.3193 31.8683 39.3853 31.8734C39.4512 31.8786 39.5131 31.9073 39.5596 31.9543C39.6143 32.0181 39.6557 32.0923 39.6814 32.1724C39.707 32.2524 39.7163 32.3368 39.7088 32.4206V33.092C39.8207 32.8309 39.9466 32.5558 40.0771 32.2667C40.2124 31.9686 40.3764 31.6844 40.5667 31.4181C40.7792 31.1222 41.0197 30.8474 41.2847 30.5975C41.6027 30.3017 41.9549 30.045 42.3338 29.8328C42.8204 29.5336 43.3691 29.3502 43.9378 29.2966C44.1779 29.2801 44.4189 29.313 44.6458 29.3932C44.8728 29.4734 45.0809 29.5992 45.2573 29.7629C45.6974 30.1891 46.0188 30.7226 46.1898 31.3109C46.4499 32.2014 46.5803 33.1248 46.5768 34.0525C46.5768 34.3323 46.5768 34.7239 46.5768 35.2182C46.5768 35.7124 46.5768 36.1087 46.5768 36.4071C46.5609 37.4794 46.4312 38.5469 46.1898 39.5917C45.9739 40.4916 45.6612 41.3655 45.2573 42.1981C44.9117 42.9225 44.4677 43.5956 43.9378 44.1984C43.4755 44.7208 42.9343 45.1676 42.3338 45.5226ZM43.1824 37.9971C43.2197 37.4553 43.2197 36.9116 43.1824 36.3698C43.1807 35.8329 43.0306 35.3069 42.7488 34.8498C42.497 34.4908 42.0727 34.4815 41.4806 34.8219C41.2068 34.9831 40.965 35.1933 40.7672 35.442C40.5658 35.6952 40.3967 35.9724 40.2636 36.2673C40.1332 36.5682 40.0302 36.8803 39.9559 37.1998C39.8786 37.5058 39.8271 37.8177 39.802 38.1323C39.7787 38.4354 39.7647 38.7851 39.7647 39.1721C39.7647 39.5591 39.7647 39.8901 39.802 40.1652C39.8216 40.4224 39.8733 40.6762 39.9559 40.9206C40.0191 41.1276 40.1238 41.3195 40.2636 41.4848C40.3941 41.6279 40.5741 41.7163 40.7672 41.7319C41.0208 41.736 41.2696 41.6628 41.4806 41.5221C42.0647 41.1904 42.5137 40.6639 42.7488 40.0347C43.0015 39.3831 43.1479 38.6951 43.1824 37.9971Z" fill="#455A64"/>
<path id="Vector_64" d="M53.9188 34.0059C53.9188 33.7914 53.8722 33.6562 53.7789 33.5909C53.629 33.5326 53.4626 33.5326 53.3127 33.5909C53.0074 33.668 52.7069 33.7629 52.4128 33.8753C52.0444 34.0106 51.5828 34.1644 51.014 34.3416C50.0566 34.6214 49.3199 34.5032 48.8039 33.9872C48.2863 33.4744 48.0299 32.5558 48.0299 31.241C48.0337 30.5555 48.1422 29.8747 48.3516 29.222C48.5721 28.5231 48.8725 27.8519 49.2468 27.2218C49.6405 26.5673 50.11 25.9617 50.6456 25.4173C51.1839 24.8709 51.7941 24.4003 52.4594 24.0185C53.0126 23.6765 53.627 23.4453 54.2685 23.3378C54.7483 23.2519 55.2419 23.2872 55.7046 23.4404C56.0902 23.5825 56.418 23.8481 56.6371 24.1957C56.8754 24.5685 57.0091 24.9985 57.0241 25.4406C57.0349 25.6607 56.9866 25.8796 56.8842 26.0748C56.8114 26.2638 56.683 26.4264 56.5159 26.541L54.2685 27.8372C54.1286 27.9165 54.0214 27.9351 53.9375 27.8839C53.8447 27.8275 53.7481 27.7776 53.6484 27.7346C53.5079 27.6785 53.3561 27.6561 53.2054 27.6694C52.9315 27.7108 52.6703 27.8128 52.4407 27.9678C52.1629 28.1231 51.9163 28.3286 51.7134 28.5739C51.5243 28.7948 51.4201 29.0758 51.4196 29.3666C51.4013 29.5279 51.4339 29.6909 51.5129 29.8328C51.5782 29.9105 51.704 29.9292 51.8905 29.8888C52.1588 29.8236 52.4234 29.7442 52.6832 29.651C53.0236 29.5298 53.4712 29.3806 54.026 29.1847C55.1684 28.8164 56.003 28.9283 56.5252 29.5298C57.0989 30.2865 57.3774 31.2263 57.3085 32.1735C57.3037 32.8619 57.1952 33.5456 56.9868 34.2017C56.7635 34.9236 56.4502 35.6144 56.0543 36.258C55.6261 36.9499 55.1192 37.5898 54.5436 38.165C53.9407 38.7652 53.262 39.284 52.5247 39.7083C51.9165 40.0872 51.2402 40.3438 50.5337 40.4636C50.0457 40.5443 49.5449 40.4861 49.0883 40.2958C48.7098 40.1251 48.396 39.8375 48.1931 39.4752C47.9803 39.1019 47.8604 38.6829 47.8434 38.2536C47.8322 38.0335 47.8805 37.8144 47.9833 37.6194C48.0561 37.4304 48.1845 37.2678 48.3516 37.1532L50.6829 35.801C50.8228 35.7217 50.9207 35.7171 50.986 35.801C51.0575 35.8797 51.139 35.9487 51.2285 36.0062C51.3594 36.083 51.5109 36.1172 51.6621 36.1041C51.9684 36.0618 52.2607 35.9485 52.5154 35.773C52.8829 35.5622 53.2136 35.2929 53.4945 34.9757C53.7575 34.7205 53.9099 34.3723 53.9188 34.0059Z" fill="#455A64"/>
<path id="Vector_65" d="M62.4486 26.5922C62.4453 26.8134 62.3944 27.0313 62.2994 27.231C62.2281 27.4108 62.1026 27.564 61.9404 27.6693L59.5624 29.0448C59.5092 29.084 59.4436 29.1028 59.3777 29.0977C59.3117 29.0926 59.2499 29.0638 59.2034 29.0168C59.1477 28.9536 59.1057 28.8795 59.08 28.7993C59.0543 28.719 59.0456 28.6343 59.0542 28.5505V16.0267C59.0546 15.8052 59.1057 15.5867 59.2034 15.3879C59.2747 15.2081 59.4002 15.0549 59.5624 14.9496L61.9404 13.5508C61.9936 13.5115 62.0591 13.4928 62.1251 13.4979C62.191 13.503 62.2529 13.5318 62.2994 13.5788C62.3544 13.6425 62.3959 13.7166 62.4215 13.7967C62.4472 13.8768 62.4564 13.9613 62.4486 14.0451V26.5922ZM62.4486 32.8402C62.4459 33.0614 62.395 33.2794 62.2994 33.4789C62.2281 33.6587 62.1026 33.8119 61.9404 33.9172L59.5624 35.2927C59.5092 35.332 59.4436 35.3508 59.3777 35.3456C59.3117 35.3405 59.2499 35.3118 59.2034 35.2647C59.1475 35.2017 59.1053 35.1276 59.0796 35.0473C59.0539 34.967 59.0453 34.8823 59.0542 34.7985V31.861C59.0546 31.6395 59.1057 31.421 59.2034 31.2222C59.2747 31.0424 59.4002 30.8893 59.5624 30.7839L61.9404 29.3851C61.9936 29.3459 62.0591 29.3271 62.1251 29.3322C62.191 29.3374 62.2529 29.3661 62.2994 29.4131C62.3541 29.4769 62.3955 29.5511 62.4212 29.6311C62.4468 29.7112 62.4561 29.7956 62.4486 29.8794V32.8402Z" fill="#455A64"/>
</g>
</g>
</g>
</svg>
